<svg class="icon line" width="24" height="24" id="love-playlist" xmlns="http://www.w3.org/2000/svg" viewBox="0 0 24 24"><title style="stroke-width: 1.5; stroke: #6C6E7F;">love playlist</title><path id="primary" d="M20.26,4.58a.82.82,0,0,1,0,1.16l-.33.33L19,7l-.94-.94-.33-.34a.82.82,0,0,1,0-1.16h0a.81.81,0,0,1,1.15,0l.12.12.11-.12A.82.82,0,0,1,20.26,4.58ZM14,15h7m-7,4h7m-7-9a2.86,2.86,0,0,0-1-4,23.19,23.19,0,0,1-3-3V18M6.5,15A3.28,3.28,0,0,0,3,18a3.28,3.28,0,0,0,3.5,3A3.28,3.28,0,0,0,10,18,3.28,3.28,0,0,0,6.5,15Z" style="fill: none; stroke: #6C6E7F; stroke-linecap: round; stroke-linejoin: round; stroke-width: 1.5;"></path></svg>